<svg display="none" xmlns="http://www.w3.org/2000/svg">

  <symbol id="whatsapp" viewBox="0 0 90 90">
    <g>
      <path id="WhatsApp" d="M90,43.841c0,24.213-19.779,43.841-44.182,43.841c-7.747,0-15.025-1.98-21.357-5.455L0,90l7.975-23.522
      c-4.023-6.606-6.34-14.354-6.34-22.637C1.635,19.628,21.416,0,45.818,0C70.223,0,90,19.628,90,43.841z M45.818,6.982
      c-20.484,0-37.146,16.535-37.146,36.859c0,8.065,2.629,15.534,7.076,21.61L11.107,79.14l14.275-4.537
      c5.865,3.851,12.891,6.097,20.437,6.097c20.481,0,37.146-16.533,37.146-36.857S66.301,6.982,45.818,6.982z M68.129,53.938
      c-0.273-0.447-0.994-0.717-2.076-1.254c-1.084-0.537-6.41-3.138-7.4-3.495c-0.993-0.358-1.717-0.538-2.438,0.537
      c-0.721,1.076-2.797,3.495-3.43,4.212c-0.632,0.719-1.263,0.809-2.347,0.271c-1.082-0.537-4.571-1.673-8.708-5.333
      c-3.219-2.848-5.393-6.364-6.025-7.441c-0.631-1.075-0.066-1.656,0.475-2.191c0.488-0.482,1.084-1.255,1.625-1.882
      c0.543-0.628,0.723-1.075,1.082-1.793c0.363-0.717,0.182-1.344-0.09-1.883c-0.27-0.537-2.438-5.825-3.34-7.977
      c-0.902-2.15-1.803-1.792-2.436-1.792c-0.631,0-1.354-0.09-2.076-0.09c-0.722,0-1.896,0.269-2.889,1.344
      c-0.992,1.076-3.789,3.676-3.789,8.963c0,5.288,3.879,10.397,4.422,11.113c0.541,0.716,7.49,11.92,18.5,16.223
      C58.2,65.771,58.2,64.336,60.186,64.156c1.984-0.179,6.406-2.599,7.312-5.107C68.398,56.537,68.398,54.386,68.129,53.938z"/>
    </g>
  </symbol>

  <symbol id="instagram" viewBox="0 0 169.063 169.063">
    <g>
      <path d="M122.406,0H46.654C20.929,0,0,20.93,0,46.655v75.752c0,25.726,20.929,46.655,46.654,46.655h75.752
        c25.727,0,46.656-20.93,46.656-46.655V46.655C169.063,20.93,148.133,0,122.406,0z M154.063,122.407
        c0,17.455-14.201,31.655-31.656,31.655H46.654C29.2,154.063,15,139.862,15,122.407V46.655C15,29.201,29.2,15,46.654,15h75.752
        c17.455,0,31.656,14.201,31.656,31.655V122.407z"/>
      <path d="M84.531,40.97c-24.021,0-43.563,19.542-43.563,43.563c0,24.02,19.542,43.561,43.563,43.561s43.563-19.541,   43.563-43.561
        C128.094,60.512,108.552,40.97,84.531,40.97z M84.531,113.093c-15.749,0-28.563-12.812-28.563-28.561
        c0-15.75,12.813-28.563,28.563-28.563s28.563,12.813,28.563,28.563C113.094,100.281,100.28,113.093,84.531,113.093z"/>
      <path d="M129.921,28.251c-2.89,0-5.729,1.17-7.77,3.22c-2.051,2.04-3.23,4.88-3.23,7.78c0,2.891,1.18,5.73,3.23,7.78
        c2.04,2.04,4.88,3.22,7.77,3.22c2.9,0,5.73-1.18,7.78-3.22c2.05-2.05,3.22-4.89,3.22-7.78c0-2.9-1.17-5.74-3.22-7.78
        C135.661,29.421,132.821,28.251,129.921,28.251z"/>
    </g>
  </symbol>

  <symbol id="phone" viewBox="0 0 29.731 29.731">
    <g>
      <path d="M23.895,29.731c-1.237,0-2.731-0.31-4.374-0.93c-3.602-1.358-7.521-4.042-11.035-7.556
      c-3.515-3.515-6.199-7.435-7.558-11.037C-0.307,6.933-0.31,4.245,0.921,3.015c0.177-0.177,0.357-0.367,0.543-0.563
      c1.123-1.181,2.392-2.51,4.074-2.45C6.697,0.05,7.82,0.77,8.97,2.201c3.398,4.226,1.866,5.732,0.093,7.478l-0.313,0.31
      c-0.29,0.29-0.838,1.633,4.26,6.731c1.664,1.664,3.083,2.882,4.217,3.619c0.714,0.464,1.991,1.166,2.515,0.642l0.315-0.318
      c1.744-1.769,3.25-3.296,7.473,0.099c1.431,1.15,2.15,2.272,2.198,3.433c0.069,1.681-1.27,2.953-2.452,4.075
      c-0.195,0.186-0.385,0.366-0.562,0.542C26.103,29.424,25.126,29.731,23.895,29.731z M5.418,1C4.223,1,3.144,2.136,2.189,3.141
      C1.997,3.343,1.811,3.539,1.628,3.722C0.711,4.638,0.804,7.045,1.864,9.856c1.31,3.472,3.913,7.266,7.33,10.683
      c3.416,3.415,7.208,6.018,10.681,7.327c2.811,1.062,5.218,1.152,6.133,0.237c0.183-0.183,0.379-0.369,0.581-0.56
      c1.027-0.976,2.192-2.082,2.141-3.309c-0.035-0.843-0.649-1.75-1.825-2.695c-3.519-2.83-4.503-1.831-6.135-0.176l-0.32,0.323
      c-0.78,0.781-2.047,0.608-3.767-0.51c-1.193-0.776-2.667-2.038-4.379-3.751c-4.231-4.23-5.584-6.819-4.26-8.146l0.319-0.315
      c1.659-1.632,2.66-2.617-0.171-6.138C7.245,1.651,6.339,1.037,5.496,1.001C5.47,1,5.444,1,5.418,1z"/>
    </g>
  </symbol>

  <symbol id="cart" viewBox="0 0 19.25 19.25">
    <g>
      <path d="M19.006,2.97c-0.191-0.219-0.466-0.345-0.756-0.345H4.431L4.236,1.461
				C4.156,0.979,3.739,0.625,3.25,0.625H1c-0.553,0-1,0.447-1,1s0.447,1,1,1h1.403l1.86,11.164c0.008,0.045,0.031,0.082,0.045,0.124
				c0.016,0.053,0.029,0.103,0.054,0.151c0.032,0.066,0.075,0.122,0.12,0.179c0.031,0.039,0.059,0.078,0.095,0.112
				c0.058,0.054,0.125,0.092,0.193,0.13c0.038,0.021,0.071,0.049,0.112,0.065c0.116,0.047,0.238,0.075,0.367,0.075
				c0.001,0,11.001,0,11.001,0c0.553,0,1-0.447,1-1s-0.447-1-1-1H6.097l-0.166-1H17.25c0.498,0,0.92-0.366,0.99-0.858l1-7
				C19.281,3.479,19.195,3.188,19.006,2.97z M17.097,4.625l-0.285,2H13.25v-2H17.097z M12.25,4.625v2h-3v-2H12.25z M12.25,7.625v2
				h-3v-2H12.25z M8.25,4.625v2h-3c-0.053,0-0.101,0.015-0.148,0.03l-0.338-2.03H8.25z M5.264,7.625H8.25v2H5.597L5.264,7.625z
				 M13.25,9.625v-2h3.418l-0.285,2H13.25z"/>
			<circle cx="6.75" cy="17.125" r="1.5"/>
			<circle cx="15.75" cy="17.125" r="1.5"/>
    </g>
  </symbol>

  <symbol id="arrow-left" viewBox="0 0 26 26">
    <g>
      <polygon points="23.885,0.58 25.969,2.664 15.133,13.5 25.969,24.336 23.885,26.42 10.965,13.5 "/>
      <polygon points="12.885,0.58 14.969,2.664 4.133,13.5 14.969,24.336 12.885,26.42 -0.035,13.5 "/>
    </g>
  </symbol>

  <symbol id="arrow-right" viewBox="0 0 26 26">
    <g>
      <polygon points="2.049,0.58 -0.035,2.664 10.801,13.5 -0.035,24.336 2.049,26.42 14.969,13.5  "/>
      <polygon points="13.049,0.58 10.965,2.664 21.801,13.5 10.965,24.336 13.049,26.42 25.969,13.5  "/>
    </g>
  </symbol>

  <symbol id="checkmark" viewBox="0 0 448.8 448.8">
    <g>
      <polygon points="142.8,323.85 35.7,216.75 0,252.45 142.8,395.25 448.8,89.25 413.1,53.55 "/>
    </g>
  </symbol>

  <symbol id="close" viewBox="0 0 20 20">
    <g>
      <path d="M15.898,4.045c-0.271-0.272-0.713-0.272-0.986,0l-4.71,4.711L5.493,4.045c-0.272-0.272-0.714-0.272-0.986,0s-0.272,0.714,0,0.986l4.709,4.711l-4.71,4.711c-0.272,0.271-0.272,0.713,0,0.986c0.136,0.136,0.314,0.203,0.492,0.203c0.179,0,0.357-0.067,0.493-0.203l4.711-4.711l4.71,4.711c0.137,0.136,0.314,0.203,0.494,0.203c0.178,0,0.355-0.067,0.492-0.203c0.273-0.273,0.273-0.715,0-0.986l-4.711-4.711l4.711-4.711C16.172,4.759,16.172,4.317,15.898,4.045z">
      </path>
    </g>
  </symbol>

</svg>